<svg xmlns="http://www.w3.org/2000/svg" xmlns:xlink="http://www.w3.org/1999/xlink" width="500" zoomAndPan="magnify" viewBox="0 0 150 149.999998" height="500" preserveAspectRatio="xMidYMid meet" version="1.0"><defs><clipPath id="052abf3bc0"><path d="M 2 9 L 147 9 L 147 141 L 2 141 Z M 2 9 " clip-rule="nonzero"/></clipPath><clipPath id="e8551f8378"><path d="M -21.402344 88.867188 L 108.84375 -16.054688 L 170.949219 61.042969 L 40.703125 165.964844 Z M -21.402344 88.867188 " clip-rule="nonzero"/></clipPath><clipPath id="58634d999f"><path d="M -21.402344 88.867188 L 108.84375 -16.054688 L 170.949219 61.042969 L 40.703125 165.964844 Z M -21.402344 88.867188 " clip-rule="nonzero"/></clipPath></defs><g clip-path="url(#052abf3bc0)"><g clip-path="url(#e8551f8378)"><g clip-path="url(#58634d999f)"><path fill="#ffffff" d="M 105.828125 113.503906 C 88.464844 127.488281 68.914062 136.652344 50.785156 139.300781 C 41.949219 140.59375 33.929688 140.269531 26.9375 138.332031 C 19.675781 136.3125 13.867188 132.644531 9.652344 127.414062 C 5.4375 122.179688 3.089844 115.722656 2.664062 108.199219 C 2.261719 100.953125 3.648438 93.050781 6.792969 84.691406 C 13.242188 67.539062 26.359375 50.390625 43.722656 36.40625 C 61.082031 22.421875 80.632812 13.257812 98.761719 10.609375 C 107.601562 9.316406 115.617188 9.640625 122.609375 11.578125 C 129.871094 13.597656 135.679688 17.265625 139.894531 22.496094 C 144.109375 27.726562 146.457031 34.1875 146.882812 41.710938 C 147.285156 48.953125 145.898438 56.859375 142.753906 65.21875 C 136.304688 82.367188 123.1875 99.519531 105.828125 113.503906 Z M 44.214844 37.019531 C 8.648438 65.667969 -6.578125 106.007812 10.265625 126.917969 C 27.109375 147.832031 69.769531 141.539062 105.332031 112.890625 C 140.898438 84.242188 156.128906 43.902344 139.28125 22.992188 C 122.4375 2.078125 79.777344 8.371094 44.214844 37.019531 Z M 44.214844 37.019531 " fill-opacity="1" fill-rule="nonzero"/></g></g></g></svg>