<svg xmlns="http://www.w3.org/2000/svg" xmlns:xlink="http://www.w3.org/1999/xlink" width="50" zoomAndPan="magnify" viewBox="0 0 37.5 37.499999" height="50" preserveAspectRatio="xMidYMid meet" version="1.0"><defs><clipPath id="026f0efeec"><path d="M 0 0 L 37.007812 0 L 37.007812 37.007812 L 0 37.007812 Z M 0 0 " clip-rule="nonzero"/></clipPath></defs><g clip-path="url(#026f0efeec)"><path fill="#ffffff" d="M 0 0 L 37.5 0 L 37.5 37.5 L 0 37.5 Z M 0 0 " fill-opacity="1" fill-rule="nonzero"/><path fill="#f4f6fc" d="M 0 0 L 37.5 0 L 37.5 37.5 L 0 37.5 Z M 0 0 " fill-opacity="1" fill-rule="nonzero"/><path fill="#f4f6fc" d="M 32.023438 5.507812 C 28.480469 1.964844 23.773438 0.015625 18.765625 0.015625 C 13.757812 0.015625 9.046875 1.964844 5.507812 5.507812 C 1.964844 9.046875 0.015625 13.757812 0.015625 18.765625 C 0.015625 23.773438 1.964844 28.480469 5.507812 32.023438 C 9.046875 35.566406 13.757812 37.515625 18.765625 37.515625 C 23.773438 37.515625 28.480469 35.566406 32.023438 32.023438 C 35.566406 28.480469 37.515625 23.773438 37.515625 18.765625 C 37.515625 13.757812 35.566406 9.046875 32.023438 5.507812 Z M 36.988281 19.695312 C 37.113281 19.351562 37.214844 19.011719 37.285156 18.675781 C 37.285156 18.707031 37.285156 18.734375 37.285156 18.765625 C 37.285156 19.71875 37.207031 20.695312 37.054688 21.660156 C 37.082031 21.011719 37.0625 20.355469 36.988281 19.695312 Z M 29.402344 33.914062 C 29.046875 34.164062 28.683594 34.402344 28.308594 34.625 C 28.3125 34.609375 28.316406 34.597656 28.316406 34.582031 C 28.6875 34.367188 29.050781 34.144531 29.402344 33.914062 Z M 8.488281 33.808594 C 8.992188 34.296875 9.527344 34.734375 10.089844 35.121094 C 9.167969 34.628906 8.285156 34.058594 7.457031 33.417969 C 7.777344 33.566406 8.125 33.699219 8.488281 33.808594 Z M 30.898438 29.863281 C 31.792969 29.191406 32.621094 28.492188 33.359375 27.78125 C 33.34375 28.453125 33.257812 29.082031 33.097656 29.65625 C 32.464844 30.277344 31.75 30.890625 30.972656 31.480469 C 31.003906 30.996094 30.980469 30.453125 30.898438 29.863281 Z M 7.824219 4.785156 C 7.945312 4.625 8.082031 4.46875 8.230469 4.3125 C 8.875 4.152344 9.582031 4.070312 10.332031 4.070312 C 10.339844 4.070312 10.351562 4.070312 10.363281 4.070312 C 10.355469 4.082031 10.34375 4.09375 10.335938 4.105469 C 9.449219 4.253906 8.605469 4.484375 7.824219 4.785156 Z M 4.570312 8.183594 C 4.601562 7.925781 4.628906 7.820312 4.742188 7.492188 C 5.4375 6.882812 6.210938 6.335938 7.039062 5.863281 C 7.003906 5.976562 6.996094 6.050781 6.976562 6.214844 C 6.109375 6.804688 5.300781 7.464844 4.570312 8.183594 Z M 3.953125 17.738281 C 3.777344 18.859375 3.6875 19.992188 3.679688 21.105469 C 3 20.890625 2.40625 20.597656 1.917969 20.238281 C 1.984375 19.164062 2.152344 18.078125 2.40625 17 C 2.839844 17.304688 3.359375 17.550781 3.953125 17.738281 Z M 12.949219 3.476562 C 14.027344 3.019531 15.144531 2.65625 16.269531 2.394531 C 16.324219 2.511719 16.359375 2.640625 16.375 2.777344 C 15.214844 2.914062 14.0625 3.152344 12.949219 3.476562 Z M 27.746094 21.503906 C 27.21875 20.542969 26.640625 19.5625 26.019531 18.589844 C 27.03125 17.832031 27.964844 17.039062 28.792969 16.230469 C 29.472656 17.15625 30.089844 18.105469 30.628906 19.046875 C 29.769531 19.886719 28.800781 20.714844 27.746094 21.503906 Z M 7.761719 11.050781 C 7.847656 11.050781 7.933594 11.054688 8.023438 11.054688 C 8.417969 11.054688 8.835938 11.027344 9.269531 10.96875 C 9.132812 11.996094 9.046875 13.070312 9.011719 14.167969 C 8.40625 14.25 7.820312 14.289062 7.273438 14.289062 C 7.160156 14.289062 7.046875 14.289062 6.9375 14.285156 C 7.144531 13.175781 7.421875 12.085938 7.761719 11.050781 Z M 25.828125 18.734375 C 26.449219 19.710938 27.027344 20.691406 27.550781 21.652344 C 26.484375 22.4375 25.339844 23.1875 24.144531 23.878906 C 23.644531 22.898438 23.109375 21.886719 22.558594 20.871094 C 23.707031 20.207031 24.804688 19.488281 25.828125 18.734375 Z M 20.921875 8.378906 C 20.394531 8.886719 19.808594 9.386719 19.171875 9.863281 C 18.429688 9.097656 17.683594 8.375 16.953125 7.722656 C 17.417969 7.371094 17.847656 7.003906 18.230469 6.632812 C 19.125 7.144531 20.03125 7.734375 20.921875 8.378906 Z M 20.640625 17.445312 C 20.070312 16.453125 19.484375 15.464844 18.902344 14.503906 C 19.816406 13.976562 20.691406 13.40625 21.503906 12.804688 C 22.226562 13.671875 22.933594 14.578125 23.613281 15.5 C 22.683594 16.1875 21.683594 16.839844 20.640625 17.445312 Z M 18.78125 14.304688 C 18.199219 13.351562 17.621094 12.417969 17.054688 11.539062 C 17.792969 11.109375 18.5 10.648438 19.15625 10.164062 C 19.894531 10.941406 20.632812 11.769531 21.355469 12.625 C 20.546875 13.21875 19.683594 13.785156 18.78125 14.304688 Z M 14.535156 12.8125 C 15.332031 12.464844 16.113281 12.074219 16.863281 11.648438 C 17.429688 12.535156 18.007812 13.46875 18.582031 14.421875 C 17.664062 14.945312 16.707031 15.421875 15.738281 15.84375 C 15.320312 14.8125 14.914062 13.792969 14.535156 12.8125 Z M 18.703125 14.621094 C 19.28125 15.582031 19.863281 16.570312 20.433594 17.5625 C 19.371094 18.167969 18.265625 18.71875 17.144531 19.207031 C 16.691406 18.148438 16.246094 17.089844 15.824219 16.058594 C 16.808594 15.632812 17.773438 15.148438 18.703125 14.621094 Z M 18.996094 9.996094 C 18.347656 10.472656 17.65625 10.925781 16.929688 11.34375 C 16.363281 10.460938 15.804688 9.621094 15.269531 8.839844 C 15.800781 8.527344 16.3125 8.195312 16.785156 7.847656 C 17.511719 8.503906 18.257812 9.226562 18.996094 9.996094 Z M 14.453125 12.597656 C 14.078125 11.617188 13.726562 10.667969 13.40625 9.78125 C 13.980469 9.535156 14.542969 9.25 15.089844 8.945312 C 15.621094 9.726562 16.175781 10.570312 16.738281 11.453125 C 16 11.875 15.230469 12.257812 14.453125 12.597656 Z M 15.527344 15.933594 C 14.53125 16.355469 13.523438 16.71875 12.523438 17.015625 C 12.273438 15.921875 12.054688 14.835938 11.878906 13.78125 C 12.695312 13.539062 13.519531 13.242188 14.332031 12.898438 C 14.707031 13.882812 15.109375 14.902344 15.527344 15.933594 Z M 15.613281 16.148438 C 16.035156 17.191406 16.476562 18.25 16.925781 19.300781 C 15.773438 19.789062 14.609375 20.210938 13.457031 20.550781 C 13.132812 19.453125 12.835938 18.339844 12.578125 17.242188 C 13.585938 16.945312 14.605469 16.578125 15.613281 16.148438 Z M 20.550781 17.765625 C 21.125 18.769531 21.691406 19.785156 22.234375 20.785156 C 21.070312 21.449219 19.859375 22.054688 18.632812 22.585938 C 18.164062 21.550781 17.695312 20.488281 17.238281 19.421875 C 18.367188 18.933594 19.480469 18.375 20.550781 17.765625 Z M 22.347656 20.992188 C 22.898438 22.011719 23.429688 23.023438 23.929688 24 C 22.714844 24.695312 21.449219 25.328125 20.164062 25.882812 C 19.6875 24.886719 19.203125 23.847656 18.730469 22.800781 C 19.960938 22.265625 21.179688 21.65625 22.347656 20.992188 Z M 22.445312 20.664062 C 21.902344 19.664062 21.332031 18.652344 20.757812 17.648438 C 21.808594 17.039062 22.816406 16.382812 23.75 15.691406 C 24.4375 16.625 25.089844 17.582031 25.703125 18.535156 C 24.683594 19.289062 23.589844 20.003906 22.445312 20.664062 Z M 21.535156 12.488281 C 20.8125 11.632812 20.074219 10.808594 19.332031 10.03125 C 19.980469 9.542969 20.578125 9.035156 21.109375 8.515625 C 21.996094 9.167969 22.871094 9.878906 23.714844 10.636719 C 23.0625 11.269531 22.332031 11.894531 21.535156 12.488281 Z M 11.839844 13.554688 C 11.667969 12.5 11.535156 11.476562 11.441406 10.503906 C 12.03125 10.328125 12.625 10.113281 13.214844 9.867188 C 13.53125 10.757812 13.878906 11.703125 14.25 12.683594 C 13.453125 13.023438 12.640625 13.316406 11.839844 13.554688 Z M 11.238281 10.5625 C 11.328125 11.535156 11.457031 12.5625 11.625 13.613281 C 11.234375 13.726562 10.839844 13.828125 10.449219 13.914062 C 10.035156 14.003906 9.625 14.082031 9.230469 14.136719 C 9.261719 13.039062 9.34375 11.964844 9.484375 10.941406 C 9.785156 10.898438 10.09375 10.839844 10.40625 10.769531 C 10.679688 10.710938 10.960938 10.640625 11.238281 10.5625 Z M 9.222656 14.371094 C 9.636719 14.3125 10.0625 14.234375 10.492188 14.140625 C 10.878906 14.054688 11.273438 13.953125 11.664062 13.84375 C 11.839844 14.898438 12.054688 15.984375 12.304688 17.078125 C 11.816406 17.21875 11.324219 17.34375 10.847656 17.449219 C 10.328125 17.5625 9.816406 17.65625 9.320312 17.730469 C 9.234375 16.601562 9.203125 15.472656 9.222656 14.371094 Z M 10.894531 17.675781 C 11.375 17.570312 11.867188 17.445312 12.355469 17.304688 C 12.613281 18.40625 12.90625 19.519531 13.226562 20.617188 C 12.667969 20.777344 12.101562 20.917969 11.550781 21.039062 C 10.949219 21.171875 10.351562 21.28125 9.773438 21.367188 C 9.578125 20.242188 9.429688 19.097656 9.335938 17.960938 C 9.84375 17.890625 10.367188 17.792969 10.894531 17.675781 Z M 17.019531 19.515625 C 17.476562 20.585938 17.941406 21.648438 18.410156 22.683594 C 17.148438 23.21875 15.871094 23.679688 14.609375 24.050781 C 14.222656 22.988281 13.855469 21.886719 13.523438 20.773438 C 14.683594 20.433594 15.859375 20.007812 17.019531 19.515625 Z M 23.800781 15.359375 C 23.121094 14.441406 22.410156 13.535156 21.6875 12.667969 C 22.488281 12.066406 23.230469 11.433594 23.890625 10.792969 C 24.734375 11.558594 25.550781 12.371094 26.320312 13.214844 C 25.570312 13.945312 24.722656 14.667969 23.800781 15.359375 Z M 21.074219 8.226562 C 20.1875 7.582031 19.28125 6.996094 18.382812 6.480469 C 18.753906 6.105469 19.078125 5.726562 19.351562 5.347656 C 20.378906 5.714844 21.410156 6.15625 22.417969 6.671875 C 22.042969 7.1875 21.59375 7.710938 21.074219 8.226562 Z M 16.132812 4.261719 C 16.265625 4.058594 16.375 3.851562 16.453125 3.652344 C 17.574219 3.683594 18.714844 3.800781 19.84375 4.003906 C 19.703125 4.359375 19.5 4.726562 19.246094 5.097656 C 18.207031 4.738281 17.160156 4.460938 16.132812 4.261719 Z M 19.125 5.269531 C 18.859375 5.632812 18.539062 6 18.175781 6.363281 C 17.269531 5.855469 16.363281 5.417969 15.484375 5.058594 C 15.683594 4.851562 15.863281 4.644531 16.011719 4.433594 C 17.035156 4.628906 18.082031 4.910156 19.125 5.269531 Z M 18.023438 6.515625 C 17.652344 6.875 17.234375 7.226562 16.78125 7.566406 C 16.046875 6.917969 15.320312 6.328125 14.625 5.816406 C 14.882812 5.617188 15.121094 5.414062 15.335938 5.207031 C 16.214844 5.566406 17.117188 6.003906 18.023438 6.515625 Z M 15.144531 8.652344 C 14.609375 7.875 14.09375 7.152344 13.609375 6.496094 C 13.90625 6.320312 14.191406 6.132812 14.460938 5.9375 C 15.15625 6.449219 15.878906 7.039062 16.613281 7.691406 C 16.152344 8.03125 15.65625 8.351562 15.144531 8.652344 Z M 13.332031 9.570312 C 13.015625 8.683594 12.730469 7.84375 12.480469 7.074219 C 12.804688 6.929688 13.125 6.769531 13.433594 6.597656 C 13.917969 7.25 14.429688 7.976562 14.960938 8.757812 C 14.433594 9.054688 13.886719 9.328125 13.332031 9.570312 Z M 11.421875 10.273438 C 11.335938 9.300781 11.292969 8.371094 11.296875 7.511719 C 11.628906 7.410156 11.964844 7.289062 12.300781 7.152344 C 12.542969 7.921875 12.828125 8.761719 13.140625 9.652344 C 12.570312 9.894531 11.992188 10.101562 11.421875 10.273438 Z M 11.101562 7.566406 C 11.097656 8.429688 11.136719 9.359375 11.21875 10.332031 C 10.933594 10.414062 10.648438 10.484375 10.371094 10.546875 C 10.082031 10.609375 9.796875 10.664062 9.515625 10.707031 C 9.664062 9.679688 9.863281 8.695312 10.113281 7.777344 C 10.289062 7.753906 10.46875 7.71875 10.652344 7.679688 C 10.800781 7.644531 10.949219 7.609375 11.101562 7.566406 Z M 9.304688 10.734375 C 8.863281 10.792969 8.4375 10.824219 8.039062 10.824219 C 7.972656 10.824219 7.902344 10.824219 7.835938 10.820312 C 8.1875 9.777344 8.605469 8.777344 9.078125 7.847656 C 9.125 7.847656 9.171875 7.847656 9.21875 7.847656 C 9.4375 7.847656 9.667969 7.835938 9.90625 7.804688 C 9.65625 8.722656 9.453125 9.707031 9.304688 10.734375 Z M 7.628906 10.8125 C 7.199219 10.789062 6.804688 10.730469 6.453125 10.636719 C 6.972656 9.613281 7.570312 8.636719 8.226562 7.730469 C 8.421875 7.78125 8.636719 7.816406 8.871094 7.835938 C 8.398438 8.769531 7.980469 9.769531 7.628906 10.8125 Z M 5.410156 10.171875 C 6.058594 9.207031 6.785156 8.289062 7.578125 7.441406 C 7.710938 7.53125 7.863281 7.609375 8.035156 7.667969 C 7.378906 8.578125 6.785156 9.554688 6.261719 10.578125 C 5.9375 10.472656 5.652344 10.335938 5.410156 10.171875 Z M 6.347656 10.847656 C 6.710938 10.949219 7.113281 11.011719 7.550781 11.039062 C 7.214844 12.078125 6.933594 13.164062 6.722656 14.277344 C 6.113281 14.242188 5.550781 14.15625 5.054688 14.019531 C 5.410156 12.925781 5.84375 11.863281 6.347656 10.847656 Z M 7.261719 14.523438 C 7.8125 14.523438 8.398438 14.484375 9.007812 14.402344 C 8.980469 15.503906 9.011719 16.632812 9.09375 17.761719 C 8.347656 17.859375 7.625 17.910156 6.949219 17.910156 C 6.796875 17.910156 6.648438 17.910156 6.5 17.902344 C 6.5625 16.765625 6.695312 15.625 6.894531 14.515625 C 7.015625 14.519531 7.136719 14.523438 7.261719 14.523438 Z M 18.503906 22.898438 C 18.984375 23.953125 19.464844 24.992188 19.9375 25.980469 C 18.617188 26.542969 17.28125 27.023438 15.964844 27.410156 C 15.519531 26.410156 15.089844 25.355469 14.691406 24.269531 C 15.957031 23.898438 17.238281 23.4375 18.503906 22.898438 Z M 24.035156 24.207031 C 24.273438 24.671875 24.503906 25.136719 24.730469 25.59375 C 24.980469 26.105469 25.21875 26.597656 25.445312 27.074219 C 24.226562 27.765625 22.957031 28.398438 21.675781 28.957031 C 21.4375 28.488281 21.191406 28 20.941406 27.488281 C 20.714844 27.03125 20.488281 26.566406 20.265625 26.09375 C 21.546875 25.535156 22.816406 24.902344 24.035156 24.207031 Z M 27.660156 21.855469 C 27.90625 22.316406 28.144531 22.773438 28.363281 23.222656 C 28.613281 23.730469 28.847656 24.234375 29.0625 24.722656 C 28 25.507812 26.855469 26.257812 25.65625 26.949219 C 25.433594 26.476562 25.199219 25.988281 24.949219 25.480469 C 24.722656 25.019531 24.488281 24.554688 24.25 24.085938 C 25.449219 23.394531 26.59375 22.644531 27.660156 21.855469 Z M 25.894531 18.394531 C 25.28125 17.441406 24.625 16.484375 23.941406 15.550781 C 24.867188 14.851562 25.722656 14.125 26.480469 13.386719 C 27.253906 14.242188 27.984375 15.136719 28.65625 16.039062 C 27.832031 16.84375 26.902344 17.636719 25.894531 18.394531 Z M 23.875 10.476562 C 23.03125 9.722656 22.152344 9.011719 21.265625 8.363281 C 21.789062 7.839844 22.246094 7.308594 22.625 6.777344 C 23.625 7.296875 24.609375 7.890625 25.546875 8.535156 C 25.082031 9.183594 24.519531 9.835938 23.875 10.476562 Z M 19.472656 5.175781 C 19.730469 4.796875 19.933594 4.417969 20.078125 4.050781 C 21.191406 4.261719 22.304688 4.5625 23.386719 4.941406 C 23.1875 5.445312 22.902344 5.96875 22.539062 6.496094 C 21.53125 5.984375 20.5 5.542969 19.472656 5.175781 Z M 6.15625 10.789062 C 5.652344 11.804688 5.214844 12.871094 4.859375 13.960938 C 4.390625 13.808594 3.980469 13.613281 3.640625 13.371094 C 4.105469 12.332031 4.65625 11.324219 5.28125 10.367188 C 5.53125 10.539062 5.824219 10.679688 6.15625 10.789062 Z M 6.683594 14.507812 C 6.480469 15.617188 6.347656 16.753906 6.285156 17.894531 C 5.519531 17.855469 4.816406 17.742188 4.191406 17.566406 C 4.375 16.445312 4.640625 15.328125 4.980469 14.242188 C 5.492188 14.382812 6.0625 14.472656 6.683594 14.507812 Z M 11.601562 21.269531 C 12.160156 21.148438 12.730469 21.003906 13.292969 20.839844 C 13.625 21.953125 13.988281 23.054688 14.375 24.117188 C 13.761719 24.292969 13.148438 24.449219 12.546875 24.582031 C 11.882812 24.726562 11.226562 24.847656 10.59375 24.941406 C 10.285156 23.859375 10.023438 22.734375 9.816406 21.597656 C 10.394531 21.515625 10.996094 21.402344 11.601562 21.269531 Z M 16.058594 27.625 C 17.382812 27.234375 18.71875 26.753906 20.039062 26.191406 C 20.265625 26.664062 20.492188 27.132812 20.71875 27.59375 C 20.96875 28.101562 21.210938 28.589844 21.449219 29.054688 C 20.132812 29.613281 18.796875 30.09375 17.476562 30.484375 C 17.222656 30.019531 16.964844 29.527344 16.714844 29.011719 C 16.492188 28.5625 16.273438 28.097656 16.058594 27.625 Z M 27.855469 21.710938 C 28.910156 20.921875 29.882812 20.09375 30.746094 19.253906 C 31 19.695312 31.234375 20.148438 31.457031 20.59375 C 31.707031 21.105469 31.9375 21.617188 32.140625 22.117188 C 31.28125 22.957031 30.3125 23.785156 29.261719 24.574219 C 29.050781 24.097656 28.820312 23.601562 28.574219 23.105469 C 28.347656 22.644531 28.109375 22.179688 27.855469 21.710938 Z M 30.804688 18.875 C 30.257812 17.929688 29.640625 16.988281 28.964844 16.0625 C 29.789062 15.246094 30.503906 14.414062 31.09375 13.589844 C 31.8125 14.464844 32.457031 15.375 33.015625 16.296875 C 32.402344 17.15625 31.660156 18.019531 30.804688 18.875 Z M 28.824219 15.875 C 28.152344 14.96875 27.421875 14.082031 26.644531 13.226562 C 27.398438 12.476562 28.054688 11.714844 28.59375 10.957031 C 29.441406 11.734375 30.230469 12.554688 30.941406 13.40625 C 30.355469 14.226562 29.644531 15.058594 28.824219 15.875 Z M 26.484375 13.050781 C 25.714844 12.210938 24.894531 11.398438 24.050781 10.632812 C 24.703125 9.984375 25.269531 9.324219 25.738281 8.667969 C 26.679688 9.324219 27.578125 10.039062 28.421875 10.800781 C 27.886719 11.546875 27.234375 12.304688 26.484375 13.050781 Z M 19.914062 3.816406 C 18.785156 3.613281 17.644531 3.496094 16.519531 3.464844 C 16.578125 3.28125 16.609375 3.105469 16.613281 2.9375 C 17.371094 2.855469 18.140625 2.816406 18.902344 2.816406 C 19.300781 2.816406 19.703125 2.828125 20.097656 2.847656 C 20.09375 3.152344 20.03125 3.476562 19.914062 3.816406 Z M 12.894531 3.691406 C 12.894531 3.6875 12.894531 3.683594 12.894531 3.679688 C 14.03125 3.34375 15.199219 3.105469 16.378906 2.964844 C 16.371094 3.121094 16.339844 3.289062 16.28125 3.460938 C 16.175781 3.460938 16.074219 3.460938 15.972656 3.460938 C 14.933594 3.460938 13.898438 3.535156 12.894531 3.691406 Z M 16.207031 3.648438 C 16.128906 3.835938 16.019531 4.027344 15.890625 4.21875 C 14.84375 4.03125 13.8125 3.929688 12.820312 3.917969 C 12.824219 3.90625 12.832031 3.894531 12.835938 3.882812 C 13.839844 3.726562 14.878906 3.648438 15.921875 3.648438 C 16.015625 3.648438 16.113281 3.648438 16.207031 3.648438 Z M 15.765625 4.390625 C 15.621094 4.582031 15.449219 4.777344 15.261719 4.96875 C 14.371094 4.617188 13.496094 4.347656 12.65625 4.160156 C 12.675781 4.140625 12.691406 4.121094 12.707031 4.097656 C 13.695312 4.109375 14.726562 4.207031 15.765625 4.390625 Z M 15.109375 5.117188 C 14.90625 5.308594 14.679688 5.496094 14.441406 5.679688 C 13.738281 5.175781 13.0625 4.742188 12.417969 4.394531 C 12.449219 4.367188 12.480469 4.339844 12.511719 4.3125 C 13.347656 4.496094 14.21875 4.765625 15.109375 5.117188 Z M 14.277344 5.800781 C 14.023438 5.984375 13.753906 6.160156 13.476562 6.320312 C 12.992188 5.675781 12.539062 5.101562 12.125 4.605469 C 12.171875 4.578125 12.214844 4.546875 12.261719 4.515625 C 12.898438 4.863281 13.574219 5.292969 14.277344 5.800781 Z M 12.414062 6.863281 C 12.171875 6.097656 11.960938 5.398438 11.796875 4.785156 C 11.851562 4.757812 11.910156 4.730469 11.960938 4.699219 C 12.371094 5.195312 12.824219 5.769531 13.304688 6.417969 C 13.015625 6.582031 12.71875 6.730469 12.414062 6.863281 Z M 11.296875 7.28125 C 11.304688 6.421875 11.359375 5.628906 11.457031 4.914062 C 11.511719 4.898438 11.570312 4.878906 11.625 4.855469 C 11.789062 5.476562 11.992188 6.175781 12.234375 6.941406 C 11.921875 7.074219 11.609375 7.1875 11.296875 7.28125 Z M 11.265625 4.96875 C 11.167969 5.683594 11.113281 6.480469 11.101562 7.339844 C 10.941406 7.382812 10.78125 7.425781 10.621094 7.460938 C 10.472656 7.492188 10.324219 7.519531 10.179688 7.542969 C 10.445312 6.625 10.761719 5.769531 11.125 4.996094 C 11.164062 4.988281 11.203125 4.980469 11.242188 4.972656 C 11.25 4.972656 11.257812 4.96875 11.265625 4.96875 Z M 9.972656 7.574219 C 9.714844 7.605469 9.472656 7.625 9.242188 7.625 C 9.226562 7.625 9.210938 7.625 9.191406 7.625 C 9.683594 6.683594 10.234375 5.8125 10.832031 5.019531 C 10.832031 5.019531 10.886719 5.019531 10.914062 5.019531 C 10.550781 5.796875 10.234375 6.65625 9.972656 7.574219 Z M 8.980469 7.617188 C 8.761719 7.605469 8.558594 7.574219 8.371094 7.527344 C 9.046875 6.613281 9.792969 5.761719 10.589844 4.996094 C 10.601562 4.996094 10.609375 5 10.621094 5 C 10.023438 5.796875 9.472656 6.675781 8.980469 7.617188 Z M 8.175781 7.472656 C 8.011719 7.417969 7.867188 7.351562 7.742188 7.269531 C 8.5625 6.414062 9.457031 5.625 10.398438 4.921875 C 10.402344 4.921875 10.402344 4.925781 10.402344 4.925781 C 9.605469 5.695312 8.855469 6.554688 8.175781 7.472656 Z M 4.785156 14.183594 C 4.441406 15.269531 4.175781 16.386719 3.988281 17.507812 C 3.398438 17.320312 2.886719 17.070312 2.464844 16.761719 C 2.734375 15.6875 3.097656 14.621094 3.546875 13.585938 C 3.894531 13.832031 4.3125 14.03125 4.785156 14.183594 Z M 6.488281 18.136719 C 6.640625 18.140625 6.792969 18.144531 6.949219 18.144531 C 7.628906 18.144531 8.355469 18.09375 9.113281 17.992188 C 9.203125 19.128906 9.347656 20.273438 9.542969 21.398438 C 8.683594 21.511719 7.855469 21.570312 7.082031 21.570312 C 6.898438 21.570312 6.71875 21.566406 6.542969 21.5625 C 6.453125 20.433594 6.4375 19.28125 6.488281 18.136719 Z M 7.089844 21.804688 C 7.875 21.804688 8.714844 21.746094 9.585938 21.628906 C 9.789062 22.765625 10.050781 23.890625 10.355469 24.972656 C 9.421875 25.097656 8.519531 25.160156 7.675781 25.160156 C 7.46875 25.160156 7.265625 25.15625 7.070312 25.148438 C 6.828125 24.066406 6.660156 22.9375 6.558594 21.796875 C 6.734375 21.800781 6.910156 21.804688 7.089844 21.804688 Z M 12.601562 24.808594 C 13.210938 24.675781 13.832031 24.515625 14.457031 24.339844 C 14.855469 25.421875 15.28125 26.476562 15.726562 27.480469 C 15.089844 27.660156 14.449219 27.824219 13.820312 27.960938 C 13.125 28.117188 12.4375 28.242188 11.773438 28.335938 C 11.355469 27.332031 10.980469 26.265625 10.660156 25.164062 C 11.292969 25.074219 11.945312 24.953125 12.601562 24.808594 Z M 13.882812 28.1875 C 14.519531 28.046875 15.171875 27.878906 15.820312 27.695312 C 16.039062 28.179688 16.265625 28.65625 16.488281 29.109375 C 16.734375 29.609375 16.984375 30.09375 17.234375 30.550781 C 16.601562 30.734375 15.964844 30.894531 15.339844 31.03125 C 14.644531 31.1875 13.953125 31.3125 13.285156 31.40625 C 13.011719 30.941406 12.746094 30.445312 12.496094 29.933594 C 12.277344 29.488281 12.0625 29.023438 11.863281 28.558594 C 12.519531 28.460938 13.199219 28.335938 13.882812 28.1875 Z M 21.550781 29.257812 C 21.988281 30.109375 22.40625 30.898438 22.800781 31.613281 C 21.539062 32.148438 20.261719 32.609375 19 32.980469 C 18.527344 32.296875 18.054688 31.527344 17.585938 30.6875 C 18.902344 30.296875 20.234375 29.816406 21.550781 29.257812 Z M 25.539062 27.277344 C 25.949219 28.144531 26.316406 28.964844 26.632812 29.714844 C 25.464844 30.378906 24.253906 30.984375 23.027344 31.515625 C 22.632812 30.800781 22.214844 30.007812 21.777344 29.160156 C 23.058594 28.601562 24.324219 27.972656 25.539062 27.277344 Z M 29.15625 24.933594 C 29.535156 25.820312 29.851562 26.667969 30.101562 27.460938 C 29.082031 28.214844 27.988281 28.929688 26.847656 29.589844 C 26.527344 28.839844 26.160156 28.023438 25.753906 27.15625 C 26.949219 26.464844 28.089844 25.71875 29.15625 24.933594 Z M 30.921875 19.082031 C 31.777344 18.230469 32.523438 17.367188 33.140625 16.507812 C 33.394531 16.941406 33.632812 17.382812 33.847656 17.816406 C 34.101562 18.332031 34.328125 18.855469 34.523438 19.367188 C 33.914062 20.222656 33.175781 21.089844 32.320312 21.9375 C 32.121094 21.457031 31.898438 20.960938 31.660156 20.472656 C 31.429688 20.011719 31.183594 19.542969 30.921875 19.082031 Z M 26.71875 6.429688 C 26.476562 7.054688 26.125 7.703125 25.671875 8.355469 C 24.734375 7.710938 23.75 7.121094 22.75 6.605469 C 23.117188 6.066406 23.40625 5.535156 23.605469 5.019531 C 24.679688 5.40625 25.726562 5.875 26.726562 6.410156 Z M 18.941406 2.625 C 18.164062 2.625 17.378906 2.664062 16.609375 2.75 C 16.59375 2.605469 16.558594 2.46875 16.5 2.339844 C 17.617188 2.09375 18.75 1.945312 19.875 1.894531 C 20 2.125 20.070312 2.378906 20.089844 2.652344 C 19.710938 2.632812 19.324219 2.625 18.941406 2.625 Z M 7.589844 7.15625 C 7.484375 7.070312 7.402344 6.96875 7.335938 6.855469 C 8.222656 6.113281 9.183594 5.441406 10.191406 4.855469 C 9.265625 5.546875 8.394531 6.320312 7.589844 7.15625 Z M 7.15625 7.007812 C 7.226562 7.125 7.316406 7.234375 7.429688 7.328125 C 6.636719 8.171875 5.90625 9.089844 5.257812 10.054688 C 5.042969 9.875 4.875 9.671875 4.757812 9.445312 C 5.476562 8.574219 6.285156 7.753906 7.15625 7.007812 Z M 6.316406 21.550781 C 5.429688 21.503906 4.617188 21.378906 3.894531 21.171875 C 3.898438 20.054688 3.984375 18.921875 4.15625 17.796875 C 4.789062 17.976562 5.5 18.085938 6.273438 18.128906 C 6.21875 19.269531 6.230469 20.421875 6.316406 21.550781 Z M 7.6875 25.390625 C 8.550781 25.390625 9.46875 25.328125 10.421875 25.199219 C 10.742188 26.296875 11.113281 27.363281 11.527344 28.371094 C 10.554688 28.5 9.617188 28.566406 8.738281 28.566406 C 8.519531 28.566406 8.304688 28.5625 8.09375 28.554688 C 7.703125 27.550781 7.375 26.484375 7.121094 25.382812 C 7.308594 25.390625 7.496094 25.390625 7.6875 25.390625 Z M 15.402344 31.25 C 16.039062 31.109375 16.695312 30.941406 17.347656 30.753906 C 17.8125 31.59375 18.285156 32.367188 18.757812 33.050781 C 18.152344 33.222656 17.550781 33.375 16.960938 33.503906 C 16.289062 33.652344 15.625 33.773438 14.984375 33.863281 C 14.433594 33.203125 13.90625 32.449219 13.40625 31.617188 C 14.058594 31.523438 14.726562 31.398438 15.402344 31.25 Z M 22.90625 31.804688 C 23.28125 32.476562 23.632812 33.078125 23.957031 33.597656 C 22.800781 34.085938 21.632812 34.507812 20.480469 34.84375 C 20.039062 34.371094 19.585938 33.808594 19.132812 33.167969 C 20.386719 32.796875 21.65625 32.335938 22.90625 31.804688 Z M 26.71875 29.914062 C 27.015625 30.625 27.269531 31.273438 27.476562 31.851562 C 26.410156 32.460938 25.300781 33.015625 24.175781 33.5 C 23.855469 32.980469 23.503906 32.378906 23.132812 31.707031 C 24.351562 31.175781 25.558594 30.574219 26.71875 29.914062 Z M 32.230469 22.339844 C 32.585938 23.242188 32.863281 24.125 33.050781 24.964844 C 32.230469 25.765625 31.304688 26.554688 30.300781 27.3125 C 30.050781 26.519531 29.734375 25.671875 29.351562 24.789062 C 30.402344 24 31.371094 23.179688 32.230469 22.339844 Z M 32.382812 10.808594 C 32.078125 11.589844 31.640625 12.398438 31.078125 13.214844 C 30.359375 12.363281 29.570312 11.542969 28.726562 10.773438 C 29.257812 10.007812 29.675781 9.242188 29.960938 8.503906 C 30.847656 9.195312 31.667969 9.949219 32.410156 10.742188 Z M 29.753906 8.402344 C 29.472656 9.121094 29.070312 9.867188 28.550781 10.613281 C 27.707031 9.859375 26.804688 9.144531 25.867188 8.488281 C 26.328125 7.824219 26.6875 7.160156 26.933594 6.519531 C 27.929688 7.066406 28.882812 7.683594 29.769531 8.359375 Z M 23.457031 4.75 C 22.375 4.371094 21.261719 4.074219 20.148438 3.859375 C 20.265625 3.511719 20.328125 3.175781 20.332031 2.863281 C 21.472656 2.9375 22.609375 3.105469 23.710938 3.363281 C 23.714844 3.792969 23.628906 4.261719 23.457031 4.75 Z M 20.328125 2.667969 C 20.308594 2.386719 20.242188 2.125 20.128906 1.882812 C 20.328125 1.878906 20.53125 1.875 20.730469 1.875 C 21.625 1.875 22.519531 1.9375 23.390625 2.066406 C 23.570312 2.394531 23.675781 2.761719 23.707031 3.15625 C 22.601562 2.90625 21.464844 2.742188 20.328125 2.667969 Z M 7.257812 6.679688 C 7.214844 6.558594 7.195312 6.429688 7.195312 6.292969 C 8.097656 5.6875 9.074219 5.152344 10.097656 4.699219 C 9.09375 5.28125 8.140625 5.949219 7.257812 6.679688 Z M 5.125 10.25 C 4.5 11.203125 3.945312 12.210938 3.480469 13.246094 C 3.171875 12.992188 2.929688 12.699219 2.761719 12.371094 C 3.289062 11.417969 3.90625 10.5 4.597656 9.636719 C 4.730469 9.867188 4.90625 10.070312 5.125 10.25 Z M 6.335938 21.789062 C 6.433594 22.925781 6.597656 24.054688 6.835938 25.140625 C 5.863281 25.089844 4.972656 24.945312 4.183594 24.71875 C 4 23.648438 3.90625 22.535156 3.894531 21.410156 C 4.625 21.617188 5.445312 21.742188 6.335938 21.789062 Z M 6.886719 25.375 C 7.136719 26.472656 7.460938 27.539062 7.847656 28.542969 C 6.835938 28.488281 5.90625 28.339844 5.085938 28.101562 C 4.714844 27.105469 4.425781 26.050781 4.226562 24.96875 C 5.023438 25.1875 5.914062 25.324219 6.886719 25.375 Z M 30.167969 27.679688 C 30.394531 28.433594 30.558594 29.140625 30.65625 29.785156 C 29.730469 30.472656 28.730469 31.125 27.683594 31.730469 C 27.480469 31.152344 27.226562 30.503906 26.929688 29.792969 C 28.066406 29.136719 29.15625 28.425781 30.167969 27.679688 Z M 34.617188 19.613281 C 34.949219 20.53125 35.191406 21.441406 35.332031 22.328125 C 34.753906 23.144531 34.050781 23.964844 33.242188 24.777344 C 33.046875 23.9375 32.769531 23.058594 32.414062 22.164062 C 33.261719 21.320312 34.003906 20.464844 34.617188 19.613281 Z M 36.011719 16.679688 C 35.699219 17.480469 35.25 18.3125 34.675781 19.148438 C 34.488281 18.664062 34.273438 18.179688 34.039062 17.695312 C 33.808594 17.230469 33.554688 16.765625 33.285156 16.308594 C 33.886719 15.441406 34.359375 14.585938 34.6875 13.753906 C 34.933594 14.164062 35.164062 14.585938 35.375 15.011719 C 35.628906 15.53125 35.855469 16.058594 36.046875 16.585938 Z M 34.511719 13.597656 C 34.195312 14.410156 33.738281 15.246094 33.15625 16.09375 C 32.597656 15.171875 31.949219 14.265625 31.230469 13.398438 C 31.8125 12.5625 32.265625 11.734375 32.578125 10.929688 C 33.320312 11.746094 33.980469 12.617188 34.542969 13.515625 Z M 26.800781 6.207031 C 25.800781 5.675781 24.75 5.210938 23.675781 4.828125 C 23.851562 4.332031 23.941406 3.859375 23.945312 3.417969 C 25.039062 3.683594 26.105469 4.039062 27.117188 4.472656 C 27.125 5.011719 27.019531 5.59375 26.800781 6.207031 Z M 12.914062 3.292969 C 13.878906 2.757812 14.878906 2.308594 15.886719 1.960938 C 16 2.039062 16.089844 2.128906 16.164062 2.226562 C 15.066406 2.488281 13.972656 2.847656 12.914062 3.292969 Z M 12.714844 3.199219 C 13.535156 2.597656 14.394531 2.089844 15.265625 1.679688 C 15.417969 1.722656 15.558594 1.773438 15.679688 1.835938 C 14.671875 2.195312 13.675781 2.652344 12.714844 3.199219 Z M 12.457031 3.167969 C 12.453125 3.164062 12.445312 3.164062 12.441406 3.164062 C 13.074219 2.539062 13.738281 2.003906 14.429688 1.570312 C 14.621094 1.574219 14.800781 1.589844 14.96875 1.617188 C 14.105469 2.039062 13.261719 2.558594 12.457031 3.167969 Z M 12.207031 3.144531 C 12.183594 3.148438 12.164062 3.148438 12.140625 3.148438 C 12.53125 2.558594 12.957031 2.054688 13.410156 1.648438 C 13.640625 1.609375 13.867188 1.585938 14.078125 1.574219 C 13.429688 2.011719 12.800781 2.539062 12.207031 3.144531 Z M 9.953125 4.566406 C 8.988281 4.992188 8.074219 5.492188 7.21875 6.054688 C 7.234375 5.933594 7.25 5.871094 7.304688 5.710938 C 7.398438 5.660156 7.492188 5.609375 7.582031 5.5625 C 8.484375 5.097656 9.320312 4.773438 9.953125 4.566406 Z M 6.976562 6.441406 C 6.988281 6.582031 7.019531 6.714844 7.070312 6.835938 C 6.199219 7.578125 5.390625 8.386719 4.667969 9.253906 C 4.578125 9.015625 4.535156 8.757812 4.539062 8.480469 C 5.277344 7.738281 6.09375 7.050781 6.976562 6.441406 Z M 3.382812 13.464844 C 2.933594 14.492188 2.566406 15.558594 2.289062 16.628906 C 1.902344 16.3125 1.601562 15.941406 1.394531 15.527344 C 1.714844 14.53125 2.132812 13.546875 2.636719 12.605469 C 2.816406 12.925781 3.066406 13.214844 3.382812 13.464844 Z M 1.902344 20.503906 C 2.402344 20.851562 3 21.136719 3.679688 21.347656 C 3.6875 22.46875 3.777344 23.578125 3.953125 24.648438 C 3.210938 24.410156 2.5625 24.09375 2.03125 23.699219 C 1.890625 22.660156 1.847656 21.585938 1.902344 20.503906 Z M 8.761719 28.792969 C 9.664062 28.792969 10.625 28.726562 11.621094 28.589844 C 11.828125 29.078125 12.046875 29.558594 12.273438 30.023438 C 12.515625 30.511719 12.769531 30.992188 13.03125 31.441406 C 12.066406 31.570312 11.136719 31.636719 10.261719 31.636719 C 10.039062 31.636719 9.820312 31.632812 9.605469 31.625 C 9.320312 31.152344 9.046875 30.65625 8.792969 30.140625 C 8.578125 29.703125 8.371094 29.25 8.183594 28.785156 C 8.375 28.789062 8.566406 28.792969 8.761719 28.792969 Z M 10.289062 31.855469 C 11.191406 31.855469 12.15625 31.789062 13.15625 31.652344 C 13.648438 32.480469 14.171875 33.234375 14.71875 33.902344 C 13.804688 34.019531 12.925781 34.082031 12.101562 34.082031 C 11.882812 34.082031 11.671875 34.078125 11.464844 34.070312 C 10.847656 33.417969 10.269531 32.671875 9.746094 31.847656 C 9.925781 31.851562 10.105469 31.855469 10.289062 31.855469 Z M 15.148438 34.058594 C 15.757812 33.96875 16.390625 33.851562 17.023438 33.710938 C 17.640625 33.574219 18.265625 33.414062 18.886719 33.238281 C 19.339844 33.875 19.789062 34.4375 20.234375 34.914062 C 19.691406 35.070312 19.148438 35.207031 18.617188 35.324219 C 18.003906 35.460938 17.390625 35.570312 16.800781 35.65625 C 16.238281 35.210938 15.679688 34.675781 15.148438 34.058594 Z M 20.644531 35.011719 C 21.78125 34.675781 22.929688 34.257812 24.066406 33.773438 C 24.367188 34.25 24.640625 34.65625 24.882812 34.980469 C 23.886719 35.402344 22.875 35.765625 21.878906 36.058594 C 21.480469 35.796875 21.066406 35.445312 20.644531 35.011719 Z M 25.101562 34.886719 C 24.859375 34.566406 24.585938 34.160156 24.289062 33.679688 C 25.398438 33.199219 26.492188 32.652344 27.546875 32.050781 C 27.730469 32.585938 27.871094 33.058594 27.96875 33.453125 C 27.042969 33.980469 26.078125 34.464844 25.101562 34.886719 Z M 30.863281 29.628906 C 30.761719 28.984375 30.597656 28.277344 30.371094 27.53125 C 31.367188 26.785156 32.285156 26.003906 33.105469 25.210938 C 33.269531 26.011719 33.355469 26.777344 33.363281 27.496094 C 32.617188 28.226562 31.777344 28.941406 30.863281 29.628906 Z M 36.75 19.765625 C 36.457031 20.515625 36.039062 21.292969 35.507812 22.078125 C 35.355469 21.199219 35.109375 20.296875 34.773438 19.394531 C 35.363281 18.550781 35.828125 17.710938 36.15625 16.894531 C 36.464844 17.8125 36.679688 18.746094 36.789062 19.667969 Z M 32.492188 10.515625 C 31.75 9.726562 30.925781 8.980469 30.039062 8.292969 C 30.292969 7.589844 30.425781 6.914062 30.433594 6.285156 C 31.320312 6.894531 32.144531 7.578125 32.882812 8.320312 C 32.894531 9 32.761719 9.742188 32.492188 10.515625 Z M 29.847656 8.148438 C 28.960938 7.476562 28.007812 6.863281 27.011719 6.320312 C 27.230469 5.707031 27.339844 5.117188 27.347656 4.570312 C 28.355469 5.015625 29.316406 5.539062 30.210938 6.132812 C 30.21875 6.761719 30.097656 7.4375 29.847656 8.148438 Z M 23.941406 3.210938 C 23.917969 2.8125 23.824219 2.445312 23.660156 2.105469 C 24.710938 2.273438 25.734375 2.535156 26.714844 2.878906 C 26.941406 3.292969 27.074219 3.75 27.109375 4.246094 C 26.09375 3.820312 25.027344 3.472656 23.941406 3.210938 Z M 20.75 1.683594 C 20.507812 1.683594 20.265625 1.6875 20.023438 1.695312 C 19.894531 1.488281 19.726562 1.296875 19.519531 1.132812 C 20.101562 1.066406 20.683594 1.035156 21.261719 1.035156 C 21.664062 1.035156 22.074219 1.050781 22.472656 1.082031 C 22.796875 1.300781 23.0625 1.558594 23.261719 1.851562 C 22.4375 1.738281 21.59375 1.683594 20.75 1.683594 Z M 19.761719 1.707031 C 18.644531 1.765625 17.515625 1.921875 16.40625 2.171875 C 16.335938 2.0625 16.246094 1.960938 16.140625 1.875 C 17.152344 1.542969 18.1875 1.304688 19.210938 1.171875 C 19.4375 1.324219 19.621094 1.503906 19.761719 1.707031 Z M 13.074219 1.707031 C 12.65625 2.117188 12.265625 2.609375 11.90625 3.175781 C 11.882812 3.183594 11.855469 3.1875 11.828125 3.191406 C 11.808594 3.199219 11.792969 3.203125 11.773438 3.207031 C 11.902344 2.6875 12.070312 2.253906 12.273438 1.914062 C 12.5 1.84375 12.730469 1.785156 12.957031 1.734375 C 12.996094 1.726562 13.035156 1.714844 13.074219 1.707031 Z M 11.570312 3.265625 C 11.511719 3.285156 11.453125 3.304688 11.398438 3.328125 C 11.28125 2.917969 11.203125 2.582031 11.164062 2.328125 C 11.445312 2.203125 11.726562 2.09375 12.007812 2 C 11.832031 2.347656 11.683594 2.769531 11.570312 3.265625 Z M 9.273438 3.410156 C 9.496094 3.25 9.730469 3.09375 9.972656 2.945312 C 10.234375 3.082031 10.542969 3.296875 10.890625 3.59375 C 10.847656 3.625 10.804688 3.65625 10.761719 3.683594 C 10.226562 3.523438 9.730469 3.433594 9.273438 3.410156 Z M 9.921875 4.367188 C 9.277344 4.578125 8.417969 4.90625 7.492188 5.386719 C 7.46875 5.398438 7.449219 5.410156 7.425781 5.421875 C 7.488281 5.289062 7.527344 5.226562 7.628906 5.0625 C 8.339844 4.765625 9.109375 4.535156 9.921875 4.367188 Z M 2.664062 12.148438 C 2.53125 11.8125 2.46875 11.441406 2.480469 11.046875 C 3.011719 10.21875 3.632812 9.429688 4.328125 8.699219 C 4.34375 8.96875 4.402344 9.21875 4.503906 9.449219 C 3.8125 10.300781 3.191406 11.207031 2.664062 12.148438 Z M 2.230469 16.871094 C 1.96875 17.9375 1.800781 19.019531 1.722656 20.089844 C 1.277344 19.722656 0.933594 19.296875 0.695312 18.816406 C 0.800781 17.816406 1.007812 16.804688 1.304688 15.816406 C 1.53125 16.210938 1.839844 16.566406 2.230469 16.871094 Z M 3.996094 24.898438 C 4.1875 25.980469 4.46875 27.03125 4.832031 28.023438 C 4.058594 27.773438 3.390625 27.441406 2.84375 27.035156 C 2.492188 26.0625 2.234375 25.042969 2.074219 23.996094 C 2.613281 24.367188 3.261719 24.671875 3.996094 24.898438 Z M 7.9375 28.773438 C 8.136719 29.269531 8.351562 29.753906 8.582031 30.21875 C 8.820312 30.703125 9.074219 31.167969 9.339844 31.609375 C 8.335938 31.554688 7.414062 31.40625 6.601562 31.167969 C 6.300781 30.695312 6.019531 30.191406 5.761719 29.671875 C 5.550781 29.246094 5.359375 28.804688 5.183594 28.359375 C 6.007812 28.585938 6.933594 28.726562 7.9375 28.773438 Z M 12.132812 34.292969 C 12.996094 34.292969 13.921875 34.226562 14.878906 34.09375 C 15.402344 34.710938 15.949219 35.246094 16.5 35.695312 C 15.6875 35.800781 14.902344 35.851562 14.167969 35.851562 C 13.964844 35.851562 13.765625 35.847656 13.574219 35.839844 C 12.910156 35.410156 12.269531 34.886719 11.671875 34.285156 C 11.824219 34.289062 11.976562 34.292969 12.132812 34.292969 Z M 18.683594 35.519531 C 19.246094 35.394531 19.820312 35.25 20.394531 35.085938 C 20.804688 35.511719 21.210938 35.867188 21.605469 36.136719 C 21.15625 36.261719 20.707031 36.375 20.261719 36.476562 C 19.722656 36.59375 19.1875 36.691406 18.671875 36.765625 C 18.121094 36.539062 17.570312 36.226562 17.027344 35.828125 C 17.566406 35.746094 18.121094 35.644531 18.683594 35.519531 Z M 25.007812 35.144531 C 25.210938 35.402344 25.394531 35.605469 25.550781 35.746094 C 24.753906 36.082031 23.941406 36.371094 23.140625 36.605469 C 22.8125 36.550781 22.464844 36.414062 22.101562 36.199219 C 23.066406 35.910156 24.042969 35.554688 25.007812 35.144531 Z M 30.691406 30.019531 C 30.769531 30.621094 30.789062 31.167969 30.746094 31.652344 C 29.941406 32.246094 29.078125 32.8125 28.175781 33.335938 C 28.078125 32.9375 27.9375 32.464844 27.753906 31.933594 C 28.785156 31.335938 29.773438 30.695312 30.691406 30.019531 Z M 35.375 22.625 C 35.488281 23.46875 35.515625 24.292969 35.449219 25.082031 C 34.929688 25.8125 34.300781 26.554688 33.574219 27.285156 C 33.558594 26.570312 33.464844 25.8125 33.296875 25.023438 C 34.097656 24.230469 34.792969 23.425781 35.375 22.625 Z M 36.15625 16.285156 C 35.980469 15.816406 35.777344 15.347656 35.550781 14.890625 C 35.316406 14.417969 35.058594 13.953125 34.78125 13.5 C 35.058594 12.734375 35.210938 12.003906 35.234375 11.316406 C 35.457031 11.683594 35.664062 12.066406 35.855469 12.449219 C 36.113281 12.980469 36.34375 13.523438 36.53125 14.046875 C 36.546875 14.742188 36.421875 15.492188 36.15625 16.285156 Z M 34.632812 13.261719 C 34.066406 12.371094 33.40625 11.511719 32.664062 10.703125 C 32.9375 9.945312 33.085938 9.214844 33.097656 8.539062 C 33.828125 9.296875 34.476562 10.121094 35.03125 10.988281 C 35.042969 11.695312 34.910156 12.457031 34.632812 13.261719 Z M 30.429688 6.035156 C 30.40625 5.492188 30.285156 4.988281 30.074219 4.523438 C 30.902344 5.058594 31.671875 5.667969 32.351562 6.324219 C 32.644531 6.832031 32.816406 7.402344 32.867188 8.019531 C 32.128906 7.296875 31.308594 6.632812 30.429688 6.035156 Z M 27.34375 4.347656 C 27.320312 3.859375 27.207031 3.402344 27.007812 2.988281 C 27.96875 3.347656 28.882812 3.792969 29.734375 4.3125 C 30 4.785156 30.15625 5.3125 30.199219 5.882812 C 29.304688 5.300781 28.34375 4.78125 27.34375 4.347656 Z M 23.546875 1.890625 C 23.371094 1.605469 23.144531 1.347656 22.863281 1.121094 C 23.796875 1.21875 24.710938 1.410156 25.566406 1.671875 C 25.972656 1.941406 26.300781 2.257812 26.550781 2.617188 C 25.582031 2.292969 24.574219 2.046875 23.546875 1.890625 Z M 21.257812 0.847656 C 20.609375 0.847656 19.949219 0.886719 19.292969 0.96875 C 19.078125 0.832031 18.835938 0.71875 18.566406 0.625 C 19.242188 0.507812 19.917969 0.449219 20.589844 0.449219 C 20.734375 0.449219 20.878906 0.449219 21.003906 0.453125 C 21.417969 0.558594 21.789062 0.699219 22.117188 0.871094 C 21.832031 0.855469 21.542969 0.847656 21.257812 0.847656 Z M 15.957031 1.742188 C 15.835938 1.664062 15.703125 1.601562 15.550781 1.550781 C 16.402344 1.171875 17.273438 0.890625 18.144531 0.707031 C 18.445312 0.785156 18.71875 0.886719 18.957031 1.015625 C 17.953125 1.164062 16.945312 1.40625 15.957031 1.742188 Z M 15.277344 1.46875 C 15.109375 1.429688 14.929688 1.402344 14.738281 1.386719 C 15.382812 1.011719 16.050781 0.722656 16.726562 0.527344 C 17.074219 0.535156 17.40625 0.5625 17.710938 0.613281 C 16.890625 0.816406 16.074219 1.101562 15.277344 1.46875 Z M 14.398438 1.371094 L 14.367188 1.371094 C 14.152344 1.371094 13.925781 1.382812 13.691406 1.410156 C 14.109375 1.082031 14.550781 0.832031 14.996094 0.664062 C 15.375 0.605469 15.742188 0.5625 16.089844 0.542969 C 15.515625 0.753906 14.949219 1.03125 14.398438 1.371094 Z M 11.054688 3.496094 C 10.722656 3.207031 10.425781 2.984375 10.167969 2.832031 C 10.429688 2.679688 10.703125 2.539062 10.980469 2.410156 C 11.027344 2.667969 11.109375 3 11.226562 3.40625 C 11.167969 3.433594 11.109375 3.464844 11.054688 3.496094 Z M 9.078125 3.59375 C 9.535156 3.59375 10.042969 3.671875 10.589844 3.824219 C 10.566406 3.847656 10.542969 3.867188 10.519531 3.890625 C 10.445312 3.890625 10.371094 3.886719 10.296875 3.886719 C 9.65625 3.886719 9.046875 3.945312 8.480469 4.0625 C 8.652344 3.902344 8.835938 3.746094 9.03125 3.59375 Z M 5.628906 5.925781 C 5.835938 5.660156 6.066406 5.394531 6.3125 5.132812 C 6.777344 4.828125 7.300781 4.585938 7.875 4.410156 C 7.726562 4.582031 7.59375 4.753906 7.476562 4.925781 C 6.816406 5.203125 6.195312 5.539062 5.628906 5.925781 Z M 7.125 5.589844 L 7.121094 5.59375 C 6.320312 6.039062 5.578125 6.542969 4.902344 7.097656 C 5.011719 6.867188 5.140625 6.632812 5.28125 6.40625 C 5.890625 5.941406 6.570312 5.535156 7.308594 5.199219 C 7.234375 5.332031 7.175781 5.460938 7.125 5.589844 Z M 4.441406 7.761719 C 4.378906 7.992188 4.339844 8.214844 4.328125 8.425781 C 3.652344 9.121094 3.042969 9.867188 2.511719 10.652344 C 2.558594 10.339844 2.640625 10.011719 2.761719 9.683594 C 3.242188 8.996094 3.808594 8.351562 4.441406 7.761719 Z M 2.527344 12.394531 C 2.023438 13.320312 1.605469 14.28125 1.277344 15.261719 C 1.113281 14.839844 1.039062 14.382812 1.050781 13.914062 C 1.371094 13.035156 1.785156 12.179688 2.28125 11.367188 C 2.300781 11.734375 2.382812 12.078125 2.527344 12.394531 Z M 0.660156 19.191406 C 0.917969 19.628906 1.269531 20.023438 1.707031 20.359375 C 1.644531 21.429688 1.679688 22.492188 1.804688 23.523438 C 1.328125 23.125 0.957031 22.664062 0.703125 22.144531 C 0.59375 21.175781 0.578125 20.183594 0.660156 19.191406 Z M 4.929688 28.285156 C 5.117188 28.78125 5.332031 29.269531 5.5625 29.738281 C 5.789062 30.199219 6.035156 30.648438 6.296875 31.074219 C 5.546875 30.824219 4.898438 30.5 4.359375 30.097656 C 4.046875 29.617188 3.757812 29.109375 3.5 28.582031 C 3.308594 28.191406 3.132812 27.789062 2.972656 27.378906 C 3.527344 27.753906 4.183594 28.054688 4.929688 28.285156 Z M 9.480469 31.835938 C 9.992188 32.652344 10.554688 33.398438 11.160156 34.054688 C 10.214844 34 9.351562 33.855469 8.585938 33.632812 C 7.921875 32.980469 7.3125 32.246094 6.773438 31.4375 C 7.585938 31.65625 8.496094 31.789062 9.480469 31.835938 Z M 11.367188 34.273438 C 11.9375 34.863281 12.542969 35.382812 13.179688 35.820312 C 12.355469 35.761719 11.601562 35.632812 10.949219 35.441406 C 10.222656 35.015625 9.53125 34.507812 8.894531 33.921875 C 9.640625 34.113281 10.472656 34.230469 11.367188 34.273438 Z M 14.199219 36.050781 C 14.996094 36.050781 15.84375 35.992188 16.726562 35.871094 C 17.234375 36.261719 17.753906 36.578125 18.277344 36.816406 C 17.621094 36.894531 16.984375 36.933594 16.386719 36.933594 C 16.203125 36.933594 16.027344 36.929688 15.875 36.929688 C 15.203125 36.71875 14.542969 36.425781 13.910156 36.050781 C 14.007812 36.050781 14.199219 36.050781 14.199219 36.050781 Z M 20.324219 36.660156 C 20.816406 36.550781 21.320312 36.425781 21.820312 36.28125 C 22.140625 36.480469 22.449219 36.625 22.75 36.714844 C 22.445312 36.800781 22.140625 36.875 21.839844 36.941406 C 21.394531 37.039062 20.953125 37.117188 20.546875 37.175781 C 20.050781 37.164062 19.550781 37.070312 19.046875 36.902344 C 19.464844 36.835938 19.894531 36.757812 20.324219 36.660156 Z M 25.226562 35.050781 C 26.175781 34.636719 27.113281 34.167969 28.015625 33.65625 C 28.085938 34 28.121094 34.277344 28.113281 34.484375 C 27.355469 34.914062 26.570312 35.304688 25.773438 35.652344 C 25.621094 35.523438 25.4375 35.320312 25.226562 35.050781 Z M 28.222656 33.539062 C 29.09375 33.03125 29.933594 32.488281 30.714844 31.917969 C 30.652344 32.34375 30.539062 32.710938 30.375 33.011719 C 29.734375 33.484375 29.046875 33.9375 28.328125 34.355469 C 28.328125 34.136719 28.289062 33.863281 28.222656 33.539062 Z M 32.976562 30.039062 C 32.804688 30.539062 32.570312 30.992188 32.289062 31.382812 C 31.8125 31.851562 31.285156 32.3125 30.710938 32.757812 C 30.828125 32.460938 30.90625 32.121094 30.949219 31.742188 C 31.683594 31.195312 32.363281 30.621094 32.976562 30.039062 Z M 35.410156 25.472656 C 35.320312 26.203125 35.15625 26.902344 34.921875 27.542969 C 34.492188 28.152344 33.972656 28.769531 33.378906 29.375 C 33.507812 28.816406 33.574219 28.210938 33.578125 27.570312 C 34.277344 26.878906 34.890625 26.175781 35.410156 25.472656 Z M 36.746094 22.738281 C 36.488281 23.394531 36.128906 24.070312 35.675781 24.753906 C 35.714844 23.984375 35.675781 23.1875 35.554688 22.375 C 36.089844 21.605469 36.519531 20.84375 36.832031 20.097656 C 36.902344 20.960938 36.886719 21.8125 36.785156 22.632812 Z M 36.933594 19.25 C 36.800781 18.363281 36.582031 17.472656 36.269531 16.59375 C 36.519531 15.90625 36.667969 15.242188 36.714844 14.613281 C 36.886719 15.183594 37.023438 15.769531 37.125 16.359375 C 37.175781 16.75 37.214844 17.140625 37.238281 17.511719 C 37.222656 18.070312 37.121094 18.652344 36.933594 19.25 Z M 36.011719 12.335938 C 35.78125 11.859375 35.515625 11.390625 35.234375 10.941406 C 35.222656 10.652344 35.1875 10.367188 35.125 10.09375 C 35.65625 11.09375 36.097656 12.136719 36.433594 13.207031 C 36.441406 13.246094 36.449219 13.285156 36.457031 13.324219 C 36.320312 12.992188 36.171875 12.660156 36.011719 12.335938 Z M 33.09375 8.246094 C 33.074219 7.71875 32.96875 7.21875 32.78125 6.761719 C 33.09375 7.089844 33.402344 7.449219 33.695312 7.824219 C 34.03125 8.28125 34.34375 8.746094 34.613281 9.1875 C 34.820312 9.628906 34.953125 10.097656 35.003906 10.589844 C 34.449219 9.757812 33.808594 8.972656 33.09375 8.246094 Z M 29.503906 3.949219 C 28.671875 3.472656 27.789062 3.0625 26.871094 2.730469 C 26.683594 2.414062 26.441406 2.128906 26.148438 1.871094 C 26.648438 2.050781 27.144531 2.265625 27.625 2.507812 C 27.984375 2.703125 28.359375 2.925781 28.761719 3.183594 C 29.050781 3.417969 29.300781 3.675781 29.503906 3.949219 Z M 22.5625 0.902344 C 22.332031 0.753906 22.078125 0.621094 21.796875 0.507812 C 21.882812 0.519531 21.964844 0.53125 22.050781 0.542969 C 22.980469 0.710938 23.90625 0.949219 24.792969 1.257812 C 24.816406 1.265625 24.835938 1.273438 24.855469 1.285156 C 24.109375 1.097656 23.34375 0.96875 22.5625 0.902344 Z M 13.339844 1.460938 C 13.207031 1.484375 13.074219 1.511719 12.9375 1.539062 C 12.773438 1.578125 12.605469 1.617188 12.4375 1.664062 C 12.601562 1.449219 12.785156 1.285156 12.976562 1.175781 C 13.316406 1.0625 13.648438 0.964844 13.964844 0.878906 L 14.066406 0.851562 C 14.132812 0.835938 14.195312 0.820312 14.261719 0.804688 C 13.941406 0.984375 13.632812 1.203125 13.339844 1.460938 Z M 11.144531 1.890625 C 11.574219 1.695312 12.007812 1.519531 12.449219 1.359375 C 12.339844 1.472656 12.242188 1.605469 12.148438 1.753906 C 11.8125 1.859375 11.476562 1.984375 11.140625 2.128906 C 11.128906 2.003906 11.136719 1.929688 11.144531 1.890625 Z M 9.691406 2.628906 C 10.097656 2.398438 10.511719 2.183594 10.933594 1.988281 C 10.933594 2.050781 10.941406 2.128906 10.949219 2.214844 C 10.613281 2.371094 10.285156 2.542969 9.96875 2.730469 C 9.871094 2.683594 9.777344 2.648438 9.691406 2.628906 Z M 8.308594 3.488281 C 8.664062 3.246094 9.027344 3.015625 9.40625 2.792969 C 9.421875 2.789062 9.4375 2.789062 9.457031 2.789062 C 9.546875 2.789062 9.648438 2.8125 9.761719 2.851562 C 9.480469 3.027344 9.210938 3.214844 8.960938 3.40625 C 8.730469 3.414062 8.515625 3.441406 8.308594 3.488281 Z M 6.859375 4.609375 C 6.953125 4.523438 7.054688 4.4375 7.15625 4.347656 C 7.355469 4.1875 7.554688 4.03125 7.746094 3.886719 C 8.03125 3.742188 8.347656 3.652344 8.699219 3.613281 C 8.488281 3.789062 8.292969 3.96875 8.117188 4.148438 C 7.667969 4.261719 7.25 4.417969 6.859375 4.609375 Z M 4.574219 7.355469 L 4.566406 7.382812 L 4.464844 7.472656 C 4.394531 7.53125 4.324219 7.589844 4.257812 7.652344 C 3.859375 8.027344 3.484375 8.429688 3.136719 8.851562 C 3.144531 8.835938 3.152344 8.820312 3.160156 8.804688 C 3.429688 8.390625 3.675781 8.027344 3.914062 7.707031 C 4.203125 7.371094 4.519531 7.054688 4.855469 6.757812 C 4.746094 6.960938 4.652344 7.160156 4.574219 7.355469 Z M 1.140625 13.175781 C 1.15625 13.089844 1.171875 13.007812 1.191406 12.929688 C 1.394531 12.320312 1.632812 11.710938 1.898438 11.128906 C 2.050781 10.824219 2.214844 10.527344 2.394531 10.242188 C 2.328125 10.507812 2.289062 10.765625 2.277344 11.011719 C 1.839844 11.703125 1.457031 12.429688 1.140625 13.175781 Z M 0.316406 17.15625 C 0.34375 16.875 0.375 16.597656 0.410156 16.324219 C 0.519531 15.675781 0.679688 15.039062 0.875 14.421875 C 0.914062 14.832031 1.015625 15.214844 1.175781 15.566406 C 0.878906 16.519531 0.664062 17.492188 0.542969 18.460938 C 0.398438 18.058594 0.324219 17.621094 0.316406 17.15625 Z M 1.84375 23.828125 C 1.988281 24.851562 2.226562 25.847656 2.550781 26.800781 C 2.121094 26.433594 1.777344 26.003906 1.527344 25.527344 L 1.476562 25.394531 C 1.4375 25.300781 1.398438 25.207031 1.367188 25.113281 C 1.097656 24.308594 0.898438 23.492188 0.773438 22.671875 C 1.046875 23.105469 1.40625 23.492188 1.84375 23.828125 Z M 2.683594 27.171875 C 2.867188 27.671875 3.078125 28.167969 3.3125 28.640625 C 3.488281 29 3.679688 29.351562 3.886719 29.695312 C 3.808594 29.617188 3.730469 29.539062 3.660156 29.460938 C 2.984375 28.511719 2.402344 27.5 1.917969 26.445312 C 2.140625 26.710938 2.394531 26.953125 2.683594 27.171875 Z M 6.472656 31.351562 C 6.980469 32.132812 7.554688 32.855469 8.175781 33.5 C 7.578125 33.289062 7.042969 33.019531 6.585938 32.699219 C 6.429688 32.5625 6.273438 32.425781 6.125 32.285156 C 5.589844 31.742188 5.097656 31.15625 4.664062 30.546875 C 5.1875 30.871094 5.792969 31.144531 6.472656 31.351562 Z M 13.507812 36.035156 C 14.035156 36.371094 14.585938 36.652344 15.144531 36.871094 C 14.90625 36.84375 14.671875 36.8125 14.445312 36.773438 C 13.726562 36.601562 13.042969 36.394531 12.410156 36.164062 C 12.140625 36.050781 11.875 35.929688 11.617188 35.804688 C 12.203125 35.925781 12.835938 36.003906 13.507812 36.035156 Z M 25.71875 35.878906 C 25.734375 35.890625 25.75 35.902344 25.765625 35.910156 C 25.222656 36.132812 24.65625 36.332031 24.082031 36.503906 C 24.625 36.320312 25.175781 36.109375 25.71875 35.878906 Z M 34.609375 28.273438 C 34.550781 28.394531 34.492188 28.515625 34.425781 28.632812 C 33.964844 29.359375 33.457031 30.054688 32.914062 30.699219 C 33.058594 30.402344 33.183594 30.082031 33.28125 29.746094 C 33.773438 29.261719 34.21875 28.765625 34.609375 28.273438 Z M 36.65625 23.425781 C 36.617188 23.613281 36.578125 23.800781 36.53125 23.984375 C 36.296875 24.777344 36.007812 25.566406 35.667969 26.320312 C 35.558594 26.53125 35.4375 26.746094 35.3125 26.953125 C 35.476562 26.375 35.589844 25.769531 35.644531 25.144531 C 36.050781 24.566406 36.390625 23.992188 36.65625 23.425781 Z M 29.898438 4.1875 C 29.8125 4.042969 29.714844 3.898438 29.609375 3.765625 C 30.238281 4.222656 30.839844 4.71875 31.410156 5.25 C 30.929688 4.867188 30.425781 4.511719 29.898438 4.1875 Z M 18.175781 0.507812 C 17.921875 0.449219 17.652344 0.402344 17.367188 0.375 C 17.617188 0.324219 17.875 0.285156 18.136719 0.261719 L 18.253906 0.253906 C 18.421875 0.25 18.59375 0.242188 18.765625 0.242188 C 19.121094 0.242188 19.496094 0.257812 19.898438 0.285156 C 19.324219 0.316406 18.75 0.390625 18.175781 0.507812 Z M 5.15625 6.273438 C 5.097656 6.316406 5.039062 6.363281 4.984375 6.410156 C 5.082031 6.300781 5.179688 6.195312 5.277344 6.089844 C 5.234375 6.152344 5.195312 6.210938 5.15625 6.273438 Z M 0.453125 21.492188 C 0.449219 21.472656 0.445312 21.453125 0.4375 21.433594 C 0.308594 20.542969 0.242188 19.644531 0.242188 18.765625 C 0.242188 18.578125 0.246094 18.382812 0.253906 18.183594 C 0.3125 18.425781 0.394531 18.660156 0.496094 18.875 C 0.40625 19.75 0.394531 20.628906 0.453125 21.492188 Z M 18.632812 36.964844 C 18.964844 37.097656 19.300781 37.195312 19.636719 37.261719 C 19.320312 37.277344 19.035156 37.285156 18.765625 37.285156 C 18.234375 37.285156 17.6875 37.261719 17.097656 37.207031 C 16.9375 37.183594 16.78125 37.15625 16.628906 37.121094 C 17.261719 37.113281 17.9375 37.058594 18.632812 36.964844 Z M 28.074219 34.71875 C 28.066406 34.742188 28.058594 34.761719 28.046875 34.78125 C 27.375 35.171875 26.699219 35.515625 26.027344 35.800781 C 26.003906 35.796875 25.980469 35.789062 25.957031 35.777344 C 26.675781 35.460938 27.386719 35.105469 28.074219 34.71875 Z M 28.074219 34.71875 " fill-opacity="1" fill-rule="nonzero"/></g></svg>