<svg xmlns="http://www.w3.org/2000/svg" xmlns:xlink="http://www.w3.org/1999/xlink" width="50" zoomAndPan="magnify" viewBox="0 0 37.5 37.499999" height="50" preserveAspectRatio="xMidYMid meet" version="1.0"><defs><clipPath id="fa9a662a8a"><path d="M 0 0 L 37.007812 0 L 37.007812 37.007812 L 0 37.007812 Z M 0 0 " clip-rule="nonzero"/></clipPath><clipPath id="f2eafefd62"><path d="M 0 0.335938 L 37.007812 0.335938 L 37.007812 37.007812 L 0 37.007812 Z M 0 0.335938 " clip-rule="nonzero"/></clipPath></defs><g clip-path="url(#fa9a662a8a)"><path fill="#ffffff" d="M 0 0 L 37.5 0 L 37.5 82.5 L 0 82.5 Z M 0 0 " fill-opacity="1" fill-rule="nonzero"/><path fill="#ffffff" d="M 0 0 L 37.5 0 L 37.5 37.5 L 0 37.5 Z M 0 0 " fill-opacity="1" fill-rule="nonzero"/><path fill="#f4f6fc" d="M 0 0 L 37.5 0 L 37.5 37.5 L 0 37.5 Z M 0 0 " fill-opacity="1" fill-rule="nonzero"/></g><g clip-path="url(#f2eafefd62)"><path fill="#f4f6fc" d="M 18.75 0.335938 C 16.921875 15.777344 15.441406 17.261719 0 19.085938 C 0.03125 19.089844 0.0625 19.09375 0.09375 19.097656 L 0.0976562 19.097656 C 15.445312 20.921875 16.925781 22.429688 18.75 37.835938 C 20.578125 22.394531 22.058594 20.914062 37.5 19.085938 C 22.058594 17.261719 20.578125 15.777344 18.75 0.335938 Z M 18.75 0.335938 " fill-opacity="1" fill-rule="nonzero"/></g></svg>