<svg width="33" height="32" viewBox="0 0 33 32" fill="none" xmlns="http://www.w3.org/2000/svg">
<g opacity="0.9">
<circle r="15.3" transform="matrix(-4.37114e-08 1 1 4.37114e-08 16.4453 16)" stroke="#212121" stroke-width="1.4"/>
<path fill-rule="evenodd" clip-rule="evenodd" d="M7.18913 15.7434C7.16908 16.0188 7.37609 16.2583 7.6515 16.2784C8.73813 16.3575 9.81849 16.4246 10.8944 16.4915C14.1042 16.6909 17.2739 16.8879 20.4509 17.3931C21.2264 17.5164 21.9966 17.6532 22.7718 17.7908C22.8804 17.8101 22.9892 17.8294 23.0981 17.8487C23.0921 17.9106 23.0823 17.9696 23.0685 18.025C23.0321 18.1713 22.9717 18.2782 22.8932 18.3545C22.8168 18.4289 22.6972 18.5 22.4971 18.5347C22.2061 18.5852 21.9147 18.6038 21.5918 18.6243C21.5479 18.6271 21.5035 18.6299 21.4584 18.6329C21.0928 18.6568 20.691 18.6886 20.2823 18.7878C19.9082 18.8785 19.615 19.0133 19.3501 19.1574C19.241 19.2167 19.1335 19.2795 19.0312 19.3391C19.0128 19.3499 18.9946 19.3605 18.9765 19.371C18.8554 19.4416 18.7373 19.5093 18.6103 19.5752C18.3652 19.7024 18.2696 20.0042 18.3968 20.2493C18.524 20.4944 18.8258 20.59 19.0709 20.4628C19.2205 20.3851 19.356 20.3072 19.4797 20.2352C19.4996 20.2237 19.519 20.2123 19.5381 20.2012C19.6406 20.1414 19.7332 20.0874 19.8279 20.0358C20.0453 19.9176 20.2552 19.8233 20.518 19.7596C20.8352 19.6827 21.1612 19.6544 21.5236 19.6308C21.566 19.628 21.6092 19.6253 21.6529 19.6225C21.9705 19.6025 22.3197 19.5805 22.6681 19.52C23.0401 19.4555 23.3517 19.3037 23.5908 19.0711C23.8278 18.8404 23.9668 18.5561 24.0389 18.2666C24.0582 18.1893 24.0729 18.1107 24.0835 18.0314C24.1264 18.0415 24.1748 18.0526 24.2247 18.0633C24.3017 18.0799 24.3903 18.0973 24.4722 18.1085C24.5128 18.1141 24.5594 18.1192 24.6063 18.121C24.6434 18.1225 24.7218 18.1242 24.8073 18.1026C24.8578 18.0899 25.0783 18.0313 25.1827 17.7959C25.2989 17.5343 25.1624 17.3203 25.1261 17.2686C25.0767 17.1981 25.0184 17.148 24.9872 17.1224C24.9503 17.092 24.9116 17.0645 24.8791 17.0422C24.8507 17.0227 24.7962 16.987 24.7528 16.9587C24.7273 16.942 24.7056 16.9278 24.6954 16.9209C24.6473 16.8886 24.6307 16.8746 24.6304 16.8749C24.6303 16.875 24.6317 16.8764 24.6342 16.879C24.3081 16.5333 23.9931 16.1746 23.6734 15.8083C23.6438 15.7744 23.6141 15.7404 23.5844 15.7063C23.3883 15.4815 23.1899 15.2541 22.988 15.0282C22.9161 14.9358 22.8455 14.847 22.7783 14.7624C22.7228 14.6925 22.6695 14.6254 22.6196 14.5615C22.5657 14.4926 22.492 14.3921 22.4041 14.272C22.1897 13.9796 21.8903 13.5712 21.5864 13.2216C21.365 12.967 21.1161 12.712 20.8552 12.5153C20.6044 12.3263 20.2828 12.1453 19.924 12.1348C19.8844 12.1336 19.821 12.1348 19.7492 12.1533C19.6797 12.1713 19.5538 12.2186 19.4571 12.3464C19.3512 12.4865 19.3417 12.6407 19.3591 12.7465C19.3746 12.841 19.4122 12.9109 19.4336 12.9465C19.4772 13.019 19.5317 13.0754 19.5633 13.1066C19.6007 13.1435 19.6414 13.179 19.679 13.2104C19.7493 13.2692 19.8306 13.3314 19.8977 13.3828L19.9097 13.392C19.9874 13.4515 20.0375 13.4904 20.0645 13.5145C20.7294 14.1052 21.3565 14.7276 21.9615 15.3848C22.0441 15.4745 22.126 15.5648 22.2075 15.6557C22.5081 16.0429 22.7767 16.4186 22.9272 16.8027C22.1568 16.666 21.3814 16.5285 20.6079 16.4055C17.3794 15.8921 14.1417 15.691 10.9195 15.4909C9.8524 15.4246 8.78697 15.3584 7.72412 15.281C7.4487 15.261 7.20918 15.468 7.18913 15.7434ZM24.6453 17.1218C24.649 17.122 24.6481 17.1217 24.6435 17.1217L24.6453 17.1218ZM24.3517 17.8944C24.3519 17.8946 24.3522 17.8948 24.3524 17.895C24.354 17.8963 24.3547 17.897 24.3547 17.897M20.2598 12.3887C20.2598 12.3887 20.2606 12.3896 20.2624 12.3914C20.2608 12.3896 20.2599 12.3887 20.2598 12.3887Z" fill="#212121"/>
<path d="M7.6515 16.2784C7.37609 16.2583 7.16908 16.0188 7.18913 15.7434C7.20918 15.468 7.4487 15.261 7.72412 15.281C8.78697 15.3584 9.8524 15.4246 10.9195 15.4909C14.1417 15.691 17.3794 15.8921 20.6079 16.4055C21.3814 16.5285 22.1568 16.666 22.9272 16.8027C22.7767 16.4186 22.5081 16.0429 22.2075 15.6557C22.126 15.5648 22.0441 15.4745 21.9615 15.3848C21.3565 14.7276 20.7294 14.1052 20.0645 13.5145C20.0375 13.4904 19.9874 13.4515 19.9097 13.392L19.8977 13.3828C19.8306 13.3314 19.7493 13.2692 19.679 13.2104C19.6414 13.179 19.6007 13.1435 19.5633 13.1066C19.5317 13.0754 19.4772 13.019 19.4336 12.9465C19.4122 12.9109 19.3746 12.841 19.3591 12.7465C19.3417 12.6407 19.3512 12.4865 19.4571 12.3464C19.5538 12.2186 19.6797 12.1713 19.7492 12.1533C19.821 12.1348 19.8844 12.1336 19.924 12.1348C20.2828 12.1453 20.6044 12.3263 20.8552 12.5153C21.1161 12.712 21.365 12.967 21.5864 13.2216C21.8903 13.5712 22.1897 13.9796 22.4041 14.272C22.492 14.3921 22.5657 14.4926 22.6196 14.5615C22.6695 14.6254 22.7228 14.6925 22.7783 14.7624C22.8455 14.847 22.9161 14.9358 22.988 15.0282C23.1899 15.2541 23.3883 15.4815 23.5844 15.7063C23.6141 15.7404 23.6438 15.7744 23.6734 15.8083C23.9931 16.1746 24.3081 16.5333 24.6342 16.879C24.6317 16.8764 24.6303 16.875 24.6304 16.8749C24.6307 16.8746 24.6473 16.8886 24.6954 16.9209C24.7056 16.9278 24.7273 16.942 24.7528 16.9587C24.7962 16.987 24.8507 17.0227 24.8791 17.0422C24.9116 17.0645 24.9503 17.092 24.9872 17.1224C25.0184 17.148 25.0767 17.1981 25.1261 17.2686C25.1624 17.3203 25.2989 17.5343 25.1827 17.7959C25.0783 18.0313 24.8578 18.0899 24.8073 18.1026C24.7218 18.1242 24.6434 18.1225 24.6063 18.121C24.5594 18.1192 24.5128 18.1141 24.4722 18.1085C24.3903 18.0973 24.3017 18.0799 24.2247 18.0633C24.1748 18.0526 24.1264 18.0415 24.0835 18.0314C24.0729 18.1107 24.0582 18.1893 24.0389 18.2666C23.9668 18.5561 23.8278 18.8404 23.5908 19.0711C23.3517 19.3037 23.0401 19.4555 22.6681 19.52C22.3197 19.5805 21.9705 19.6025 21.6529 19.6225C21.6092 19.6253 21.566 19.628 21.5236 19.6308C21.1612 19.6544 20.8352 19.6827 20.518 19.7596C20.2552 19.8233 20.0453 19.9176 19.8279 20.0358C19.7332 20.0874 19.6406 20.1414 19.5381 20.2012C19.519 20.2123 19.4996 20.2237 19.4797 20.2352C19.356 20.3072 19.2205 20.3851 19.0709 20.4628C18.8258 20.59 18.524 20.4944 18.3968 20.2493C18.2696 20.0042 18.3652 19.7024 18.6103 19.5752C18.7373 19.5093 18.8554 19.4416 18.9765 19.371C18.9946 19.3605 19.0128 19.3499 19.0312 19.3391C19.1335 19.2795 19.241 19.2167 19.3501 19.1574C19.615 19.0133 19.9082 18.8785 20.2823 18.7878C20.691 18.6886 21.0928 18.6568 21.4584 18.6329C21.5035 18.6299 21.5479 18.6271 21.5918 18.6243C21.9147 18.6038 22.2061 18.5852 22.4971 18.5347C22.6972 18.5 22.8168 18.4289 22.8932 18.3545C22.9717 18.2782 23.0321 18.1713 23.0685 18.025C23.0823 17.9696 23.0921 17.9106 23.0981 17.8487C22.9892 17.8294 22.8804 17.8101 22.7718 17.7908C21.9966 17.6532 21.2264 17.5164 20.4509 17.3931C17.2739 16.8879 14.1042 16.6909 10.8944 16.4915C9.81849 16.4246 8.73813 16.3575 7.6515 16.2784ZM24.6453 17.1218C24.649 17.122 24.6481 17.1217 24.6435 17.1217L24.6453 17.1218ZM24.3524 17.895C24.3522 17.8948 24.3519 17.8946 24.3517 17.8944L24.3547 17.897C24.3547 17.897 24.354 17.8963 24.3524 17.895ZM20.2598 12.3887C20.2598 12.3887 20.2606 12.3896 20.2624 12.3914C20.2608 12.3896 20.2599 12.3887 20.2598 12.3887Z" stroke="#212121" stroke-width="0.4" stroke-linecap="round"/>
</g>
</svg>
