<svg width="108" height="108" viewBox="0 0 108 108" fill="none" xmlns="http://www.w3.org/2000/svg">
<path d="M54 0C43.3198 0 32.8795 3.16704 23.9992 9.10064C15.119 15.0342 8.19766 23.4679 4.11053 33.3351C0.0233974 43.2023 -1.04598 54.0599 1.03762 64.5349C3.12122 75.0098 8.26422 84.6317 15.8163 92.1837C23.3683 99.7358 32.9902 104.879 43.4651 106.962C53.9401 109.046 64.7977 107.977 74.6649 103.889C84.5321 99.8023 92.9658 92.881 98.8994 84.0008C104.833 75.1205 108 64.6802 108 54C107.985 39.6829 102.291 25.9566 92.1671 15.8329C82.0434 5.70924 68.3171 0.0151191 54 0ZM54 99.6923C44.9629 99.6923 36.1288 97.0125 28.6147 91.9917C21.1007 86.971 15.2442 79.8349 11.7858 71.4857C8.32749 63.1365 7.42263 53.9493 9.18568 45.0859C10.9487 36.2224 15.3005 28.0808 21.6907 21.6907C28.0809 15.3005 36.2225 10.9487 45.0859 9.18566C53.9493 7.42261 63.1365 8.32747 71.4857 11.7858C79.8349 15.2442 86.971 21.1006 91.9918 28.6147C97.0125 36.1288 99.6923 44.9629 99.6923 54C99.6786 66.1141 94.8602 77.7282 86.2942 86.2941C77.7282 94.8601 66.1141 99.6785 54 99.6923ZM29.0769 43.6154C29.0769 42.383 29.4424 41.1784 30.127 40.1537C30.8117 39.1291 31.7848 38.3305 32.9233 37.8589C34.0618 37.3873 35.3146 37.2639 36.5233 37.5043C37.7319 37.7447 38.8421 38.3382 39.7135 39.2096C40.5849 40.0809 41.1783 41.1912 41.4188 42.3998C41.6592 43.6085 41.5358 44.8613 41.0642 45.9998C40.5926 47.1383 39.794 48.1114 38.7693 48.7961C37.7447 49.4807 36.54 49.8461 35.3077 49.8461C33.6552 49.8461 32.0704 49.1897 30.9019 48.0212C29.7334 46.8527 29.0769 45.2679 29.0769 43.6154ZM78.9231 43.6154C78.9231 44.8477 78.5577 46.0524 77.873 47.077C77.1884 48.1016 76.2152 48.9003 75.0767 49.3719C73.9382 49.8434 72.6854 49.9668 71.4768 49.7264C70.2681 49.486 69.1579 48.8926 68.2865 48.0212C67.4151 47.1498 66.8217 46.0396 66.5813 44.8309C66.3409 43.6223 66.4642 42.3695 66.9358 41.231C67.4074 40.0924 68.206 39.1193 69.2307 38.4347C70.2553 37.75 71.46 37.3846 72.6923 37.3846C74.3448 37.3846 75.9296 38.0411 77.0981 39.2096C78.2666 40.3781 78.9231 41.9629 78.9231 43.6154ZM78.3675 68.5384C73.0246 77.7756 64.1406 83.0769 54 83.0769C43.8594 83.0769 34.9806 77.7808 29.6377 68.5384C29.3372 68.0657 29.1354 67.537 29.0444 66.9842C28.9535 66.4314 28.9753 65.8659 29.1086 65.3218C29.2419 64.7776 29.4839 64.2661 29.82 63.8179C30.1561 63.3697 30.5794 62.9941 31.0644 62.7137C31.5495 62.4334 32.0862 62.254 32.6423 62.1865C33.1985 62.1189 33.7625 62.1646 34.3006 62.3207C34.8386 62.4767 35.3395 62.7401 35.7731 63.0947C36.2068 63.4494 36.5642 63.8882 36.8239 64.3846C40.7025 71.0879 46.7983 74.7692 54 74.7692C61.2017 74.7692 67.2975 71.0827 71.171 64.3846C71.7218 63.4303 72.6292 62.7339 73.6935 62.4486C74.7578 62.1632 75.8918 62.3124 76.8462 62.8633C77.8005 63.4141 78.4969 64.3215 78.7822 65.3858C79.0675 66.4501 78.9183 67.5841 78.3675 68.5384Z" fill="#040404"/>
</svg>
